<?xml version="1.0" encoding="UTF-8" standalone="no"?>
<!-- Created with Inkscape (http://www.inkscape.org/) -->

<svg
   xmlns:dc="http://purl.org/dc/elements/1.1/"
   xmlns:cc="http://creativecommons.org/ns#"
   xmlns:rdf="http://www.w3.org/1999/02/22-rdf-syntax-ns#"
   xmlns:svg="http://www.w3.org/2000/svg"
   xmlns="http://www.w3.org/2000/svg"
   xmlns:sodipodi="http://sodipodi.sourceforge.net/DTD/sodipodi-0.dtd"
   xmlns:inkscape="http://www.inkscape.org/namespaces/inkscape"
   width="188.97638"
   height="182.97638"
   viewBox="0 0 50 48.412502"
   version="1.1"
   id="svg739"
   inkscape:version="0.92.3 (2405546, 2018-03-11)"
   sodipodi:docname="flower.svg">
  <defs
     id="defs733" />
  <sodipodi:namedview
     id="base"
     pagecolor="#ffffff"
     bordercolor="#666666"
     borderopacity="1.0"
     inkscape:pageopacity="0.0"
     inkscape:pageshadow="2"
     inkscape:zoom="0.35"
     inkscape:cx="400"
     inkscape:cy="560"
     inkscape:document-units="mm"
     inkscape:current-layer="layer1"
     showgrid="false"
     inkscape:window-width="1920"
     inkscape:window-height="1053"
     inkscape:window-x="1920"
     inkscape:window-y="0"
     inkscape:window-maximized="1"
     units="px" />
  <metadata
     id="metadata736">
    <rdf:RDF>
      <cc:Work
         rdf:about="">
        <dc:format>image/svg+xml</dc:format>
        <dc:type
           rdf:resource="http://purl.org/dc/dcmitype/StillImage" />
        <dc:title></dc:title>
      </cc:Work>
    </rdf:RDF>
  </metadata>
  <g
     inkscape:label="Calque 1"
     inkscape:groupmode="layer"
     id="layer1"
     transform="translate(0,-248.58748)">
    <g
       transform="matrix(0.26458333,0,0,0.26458333,6.8288024,208.09039)"
       id="g365">
     
      <path
         style="fill:white"
         inkscape:connector-curvature="0"
         d="m 79.142,229.987 c -2.796,-1.572 -2.01,-9.186 0.861,-14.354 2.872,-5.167 9.762,-19.521 1.149,-28.421 -8.613,-8.9 -20.075,-7.152 -24.978,-2.872 -6.84,5.973 -10.047,15.789 -5.167,24.688 4.88,8.9 12.632,12.346 12.632,15.791 0,3.444 -2.298,9.761 -8.613,3.444 -6.315,-6.317 -9.473,-22.104 -19.521,-22.966 -10.049,-0.861 -20.67,3.157 -20.67,16.076 0,12.919 8.324,21.243 15.789,20.671 7.465,-0.575 24.05,-3.264 22.817,3.308 -1.054,5.622 -4.512,8.296 -8.215,5.34 -5.924,-4.728 -18.908,-3.479 -26.66,3.697 -7.751,7.175 -6.973,23.337 -2.092,27.93 4.881,4.596 19.889,13.409 30.8,0.203 10.91,-13.207 1.435,-21.53 11.196,-20.67 9.762,0.861 7.752,8.324 5.168,10.908 -2.584,2.584 -14.928,17.513 -6.314,27.848 8.611,10.336 16.361,9.473 22.678,8.325 6.317,-1.148 20.956,-8.612 16.364,-23.254 -4.593,-14.641 -21.817,-15.788 -16.65,-22.966 5.167,-7.178 9.761,-3.732 10.048,1.436 0.288,5.166 8.156,18.921 15.021,23.1 9.447,5.75 28.139,-1.053 29.574,-16.841 1.435,-15.788 -10.432,-23.197 -21.916,-23.197 -11.484,0 -24.688,5.455 -23.254,-3.444 1.436,-8.9 16.466,-2.932 21.347,-2.932 9.447,0 20.569,-7.115 19.132,-23.479 -1.436,-16.364 -15.789,-24.115 -26.125,-19.235 -10.335,4.88 -16.649,17.225 -16.075,24.115 0.574,6.889 -3.734,10.335 -8.326,7.751 z"
         id="path359" />
      <circle
         style="fill:#ffffff"
         cx="71.515999"
         cy="245.76401"
         r="16.117001"
         id="circle361" />
      <circle
         style="fill:yellow"
         cx="71.791"
         cy="246.175"
         r="13.144"
         id="circle363" />
    </g>
  </g>
</svg>
